<svg width="90" height="70" viewBox="0 0 90 70" fill="none" xmlns="http://www.w3.org/2000/svg">
<rect x="1.5" y="1.5" width="87" height="67" rx="4.5" stroke="black" stroke-opacity="0.52" stroke-width="3"/>
<path fill-rule="evenodd" clip-rule="evenodd" d="M59.2407 43.5785C58.2528 42.7804 57.0567 42.0841 55.4308 41.3948L55.3372 41.3552H55.2356L41.7242 41.3552L29.5264 41.3552L23.3571 41.3552L21.4248 41.3552L20.893 41.3552L20.7539 41.3552L20.7184 41.3552L20.7094 41.3552H20.7072H20.7066C20.7065 41.3552 20.7064 41.3552 20.7064 41.8552V41.3552L20.2064 41.3552V41.8552H20.7064C20.2064 41.8552 20.2064 41.8553 20.2064 41.8554V41.8558V41.8566V41.8577V41.8591V41.8608V41.8629V41.8652V41.8678V41.8708V41.874V41.8776V41.8814V41.8856V41.89V41.8948V41.8999V41.9052V41.9108V41.9168V41.923V41.9295V41.9364V41.9435V41.9509V41.9585V41.9665V41.9748V41.9833V41.9921V42.0012V42.0106V42.0203V42.0303V42.0405V42.051V42.0618V42.0728V42.0842V42.0958V42.1076V42.1198V42.1322V42.1449V42.1578V42.1711V42.1846V42.1983V42.2123V42.2266V42.2411V42.2559V42.271V42.2863V42.3019V42.3177V42.3338V42.3501V42.3667V42.3835V42.4006V42.418V42.4356V42.4534V42.4715V42.4898V42.5084V42.5272V42.5462V42.5655V42.5851V42.6048V42.6249V42.6451V42.6656V42.6863V42.7073V42.7284V42.7499V42.7715V42.7934V42.8155V42.8378V42.8603V42.8831V42.9061V42.9294V42.9528V42.9765V43.0003V43.0244V43.0488V43.0733V43.0981V43.123V43.1482V43.1736V43.1992V43.225V43.251V43.2772V43.3037V43.3303V43.3571V43.3842V43.4114V43.4389V43.4665V43.4944V43.5224V43.5507V43.5791V43.6077V43.6365V43.6656V43.6948V43.7242V43.7537V43.7835V43.8135V43.8436V43.874V43.9045V43.9352V43.966V43.9971V44.0283V44.0598V44.0913V44.1231V44.1551V44.1872V44.2195V44.2519V44.2846V44.3174V44.3504V44.3835V44.4168V44.4503V44.4839V44.5177V44.5517V44.5858V44.6201V44.6545V44.6891V44.7239V44.7588V44.7939V44.8291V44.8644V44.9V44.9356V44.9715V45.0074V45.0436V45.0798V45.1162V45.1528V45.1895V45.2263V45.2633V45.3004V45.3377V45.3751V45.4126V45.4503V45.4881V45.526V45.5641V45.6023V45.6406V45.679V45.7176V45.7563V45.7952V45.8341V45.8732V45.9124V45.9517V45.9912V46.0307V46.0704V46.1102V46.1501V46.1902V46.2303V46.2706V46.3109V46.3514V46.392V46.4327V46.4735V46.5144V46.5554V46.5965V46.6378V46.6791V46.7205V46.762V46.8037V46.8454V46.8872V46.9291V46.9711V47.0132V47.0554V47.0977V47.1401V47.1825V47.2251V47.2677V47.3104V47.3532V47.3961V47.4391V47.4822V47.5253V47.5685V47.6118V47.6552V47.6986V47.7421V47.7857V47.8294V47.8731V47.9169V47.9608V48.0048V48.0488V48.0928V48.137V48.1812V48.2255V48.2698V48.3142V48.3587V48.4032V48.4477V48.4924V48.5371V48.5818V48.6266V48.6714V48.7163V48.7613V48.8063V48.8513V48.8964V48.9415V48.9867V49.0319V49.0772V49.1225V49.1679V49.2132V49.2587V49.3041V49.3496V49.3952V49.4407V49.4863V49.532V49.5776V49.6233V49.669V49.7148V49.7606V49.8064V49.8522V49.898V49.9439V49.9898V50.0357V50.0817V50.1276V50.1736V50.2195V50.2655V50.3116V50.3576V50.4036V50.4497V50.4957V50.5418V50.5878V50.6339V50.68V50.7261V50.7722V50.8182V50.8643V50.9104V50.9565V51.0026V51.0487V51.0947V51.1408V51.1869V51.2329V51.279V51.325V51.371V51.417V51.463V51.509V51.555V51.6009V51.6469V51.6928V51.7387V51.7846V51.8304V51.8762V51.9221V51.9678V52.0136V52.0593V52.105V52.1507V52.1963V52.2419V52.2875V52.333V52.3785V52.424V52.4694V52.5148V52.5602V52.6055V52.6508V52.696V52.7412V52.7863V52.8314V52.8765V52.9215V52.9664V53.0113V53.0562V53.101V53.1457V53.1904V53.235V53.2796V53.3242V53.3686V53.413V53.4574V53.5016V53.5459V53.59V53.6341V53.6781V53.7221V53.766V53.8098V53.8535V53.8972V53.9408V53.9843V54.0278V54.0712V54.1145V54.1577V54.2009V54.2439V54.2869V54.3298V54.3726V54.4154V54.458V54.5006V54.543V54.5854V54.6277V54.6699V54.712V54.7541V54.796V54.8378V54.8795V54.9212V54.9627V55.0042V55.0455V55.0867V55.1279V55.1689V55.2098V55.2506V55.2913V55.332V55.3724V55.4128V55.4531V55.4933V55.5333V55.5732V55.6131V55.6528V55.6923V55.7318V55.7711V55.8104V55.8495V55.8884V55.9273V55.966V56.0046V56.0431V56.0814V56.1196V56.1577V56.1957V56.2335V56.2712V56.3087V56.3462V56.3834V56.4206V56.4576V56.4944V56.5311V56.5677V56.6041V56.6404V56.6766V56.7126V56.7484V56.7841V56.8196V56.855V56.8903V56.9254V56.9603V56.9951V57.0297V57.0642V57.0985V57.1326V57.1666V57.2004V57.2341V57.2676V57.3009V57.3341V57.3671V57.3999V57.4326V57.4651V57.4974V57.5295V57.5615V57.5933V57.6249V57.6563V57.6876V57.7187V57.7496V57.7803V57.8109V57.8412V57.8714V57.9014V57.9312V57.9608V57.9902V58.0194V58.0485V58.0773V58.106V58.1345V58.1627V58.1908V58.2187V58.2463V58.2738V58.3011V58.3282V58.355V58.3817V58.4082V58.4344V58.4605V58.4863V58.5119V58.5373V58.5626V58.5876V58.6123V58.6369V58.6613V58.6854V58.7093V58.733V58.7565V58.7797V58.8028V58.8256V58.8482V58.8705V58.8926V58.9146V58.9362V58.9577V58.9789V58.9999V59.0206V59.0411V59.0614C20.2064 59.3376 20.4303 59.5614 20.7064 59.5614C20.9826 59.5614 21.2064 59.3376 21.2064 59.0614V59.0411V59.0206V58.9999V58.9789V58.9577V58.9362V58.9146V58.8926V58.8705V58.8482V58.8256V58.8028V58.7797V58.7565V58.733V58.7093V58.6854V58.6613V58.6369V58.6123V58.5876V58.5626V58.5373V58.5119V58.4863V58.4605V58.4344V58.4082V58.3817V58.355V58.3282V58.3011V58.2738V58.2463V58.2187V58.1908V58.1627V58.1345V58.106V58.0773V58.0485V58.0194V57.9902V57.9608V57.9312V57.9014V57.8714V57.8412V57.8109V57.7803V57.7496V57.7187V57.6876V57.6563V57.6249V57.5933V57.5615V57.5295V57.4974V57.4651V57.4326V57.3999V57.3671V57.3341V57.3009V57.2676V57.2341V57.2004V57.1666V57.1326V57.0985V57.0642V57.0297V56.9951V56.9603V56.9254V56.8903V56.855V56.8196V56.7841V56.7484V56.7126V56.6766V56.6404V56.6041V56.5677V56.5311V56.4944V56.4576V56.4206V56.3834V56.3462V56.3087V56.2712V56.2335V56.1957V56.1577V56.1196V56.0814V56.0431V56.0046V55.966V55.9273V55.8884V55.8495V55.8104V55.7711V55.7318V55.6923V55.6528V55.6131V55.5732V55.5333V55.4933V55.4531V55.4128V55.3724V55.332V55.2913V55.2506V55.2098V55.1689V55.1279V55.0867V55.0455V55.0042V54.9627V54.9212V54.8795V54.8378V54.796V54.7541V54.712V54.6699V54.6277V54.5854V54.543V54.5006V54.458V54.4154V54.3726V54.3298V54.2869V54.2439V54.2009V54.1577V54.1145V54.0712V54.0278V53.9843V53.9408V53.8972V53.8535V53.8098V53.766V53.7221V53.6781V53.6341V53.59V53.5459V53.5016V53.4574V53.413V53.3686V53.3242V53.2796V53.235V53.1904V53.1457V53.101V53.0562V53.0113V52.9664V52.9215V52.8765V52.8314V52.7863V52.7412V52.696V52.6508V52.6055V52.5602V52.5148V52.4694V52.424V52.3785V52.333V52.2875V52.2419V52.1963V52.1507V52.105V52.0593V52.0136V51.9678V51.9221V51.8762V51.8304V51.7846V51.7387V51.6928V51.6469V51.6009V51.555V51.509V51.463V51.417V51.371V51.325V51.279V51.2329V51.1869V51.1408V51.0947V51.0487V51.0026V50.9565V50.9104V50.8643V50.8182V50.7722V50.7261V50.68V50.6339V50.5878V50.5418V50.4957V50.4497V50.4036V50.3576V50.3116V50.2655V50.2195V50.1736V50.1276V50.0817V50.0357V49.9898V49.9439V49.898V49.8522V49.8064V49.7606V49.7148V49.669V49.6233V49.5776V49.532V49.4863V49.4407V49.3952V49.3496V49.3041V49.2587V49.2132V49.1679V49.1225V49.0772V49.0319V48.9867V48.9415V48.8964V48.8513V48.8063V48.7613V48.7163V48.6714V48.6266V48.5818V48.5371V48.4924V48.4477V48.4032V48.3587V48.3142V48.2698V48.2255V48.1812V48.137V48.0928V48.0488V48.0048V47.9608V47.9169V47.8731V47.8294V47.7857V47.7421V47.6986V47.6552V47.6118V47.5685V47.5253V47.4822V47.4391V47.3961V47.3532V47.3104V47.2677V47.2251V47.1825V47.1401V47.0977V47.0554V47.0132V46.9711V46.9291V46.8872V46.8454V46.8037V46.762V46.7205V46.6791V46.6378V46.5965V46.5554V46.5144V46.4735V46.4327V46.392V46.3514V46.3109V46.2706V46.2303V46.1902V46.1501V46.1102V46.0704V46.0307V45.9912V45.9517V45.9124V45.8732V45.8341V45.7952V45.7563V45.7176V45.679V45.6406V45.6023V45.5641V45.526V45.4881V45.4503V45.4126V45.3751V45.3377V45.3004V45.2633V45.2263V45.1895V45.1528V45.1162V45.0798V45.0436V45.0074V44.9715V44.9356V44.9V44.8644V44.8291V44.7939V44.7588V44.7239V44.6891V44.6545V44.6201V44.5858V44.5517V44.5177V44.4839V44.4503V44.4168V44.3835V44.3504V44.3174V44.2846V44.2519V44.2195V44.1872V44.1551V44.1231V44.0913V44.0598V44.0283V43.9971V43.966V43.9352V43.9045V43.874V43.8436V43.8135V43.7835V43.7537V43.7242V43.6948V43.6656V43.6365V43.6077V43.5791V43.5507V43.5224V43.4944V43.4665V43.4389V43.4114V43.3842V43.3571V43.3303V43.3037V43.2772V43.251V43.225V43.1992V43.1736V43.1482V43.123V43.0981V43.0733V43.0488V43.0244V43.0003V42.9765V42.9528V42.9294V42.9061V42.8831V42.8603V42.8378V42.8155V42.7934V42.7715V42.7499V42.7284V42.7073V42.6863V42.6656V42.6451V42.6249V42.6048V42.5851V42.5655V42.5462V42.5272V42.5084V42.4898V42.4715V42.4534V42.4356V42.418V42.4006V42.3835V42.3667V42.3552L21.4248 42.3552L23.3571 42.3552L29.5264 42.3552L41.7242 42.3552L55.1335 42.3552C57.0175 43.1626 58.243 43.9604 59.2407 44.9069V43.5785Z" fill="#222222"/>
<path d="M55.4308 41.3948L55.0405 42.3155L55.0405 42.3155L55.4308 41.3948ZM59.2407 43.5785H60.2407V43.1008L59.8692 42.8007L59.2407 43.5785ZM55.3372 41.3552L55.7275 40.4345L55.5404 40.3552H55.3372V41.3552ZM55.2356 41.3552V40.3552H55.2356L55.2356 41.3552ZM41.7242 41.3552L41.7242 42.3552H41.7242L41.7242 41.3552ZM29.5264 41.3552L29.5264 40.3552L29.5264 40.3552L29.5264 41.3552ZM23.3571 41.3552L23.3571 40.3552H23.3571L23.3571 41.3552ZM21.4248 41.3552L21.4248 40.3552H21.4248L21.4248 41.3552ZM20.893 41.3552L20.893 40.3552H20.893L20.893 41.3552ZM20.7539 41.3552L20.7539 42.3552H20.7539L20.7539 41.3552ZM20.7184 41.3552L20.7184 40.3552H20.7184L20.7184 41.3552ZM20.7094 41.3552V42.3552L20.7094 42.3552L20.7094 41.3552ZM20.7064 41.8552V42.8552H21.7064V41.8552H20.7064ZM20.7064 41.3552H21.7064V40.3552L20.7064 40.3552L20.7064 41.3552ZM20.2064 41.3552L20.2064 40.3552L19.2064 40.3552V41.3552H20.2064ZM20.2064 41.8552H19.2064V42.8552H20.2064V41.8552ZM21.2064 42.3552L21.2064 41.3552L20.2064 41.3552V42.3552H21.2064ZM21.4248 42.3552L21.4248 41.3552L21.4248 41.3552L21.4248 42.3552ZM23.3571 42.3552L23.3571 41.3552L23.3571 41.3552L23.3571 42.3552ZM29.5264 42.3552L29.5264 41.3552L29.5264 41.3552L29.5264 42.3552ZM41.7242 42.3552L41.7242 43.3552L41.7242 43.3552L41.7242 42.3552ZM55.1335 42.3552L55.5274 41.436L55.3388 41.3552L55.1335 41.3552L55.1335 42.3552ZM59.2407 44.9069L58.5525 45.6324L60.2407 47.234V44.9069H59.2407ZM55.0405 42.3155C56.6048 42.9786 57.7146 43.6311 58.6123 44.3564L59.8692 42.8007C58.7911 41.9297 57.5086 41.1895 55.821 40.4741L55.0405 42.3155ZM54.9469 42.2759L55.0405 42.3155L55.8211 40.4741L55.7275 40.4345L54.9469 42.2759ZM55.2356 42.3552H55.3372V40.3552H55.2356V42.3552ZM41.7242 42.3552L55.2356 42.3552L55.2356 40.3552L41.7242 40.3552L41.7242 42.3552ZM29.5264 42.3552L41.7242 42.3552L41.7242 40.3552L29.5264 40.3552L29.5264 42.3552ZM23.3571 42.3552L29.5264 42.3552L29.5264 40.3552L23.3571 40.3552L23.3571 42.3552ZM21.4248 42.3552L23.3571 42.3552L23.3571 40.3552L21.4248 40.3552L21.4248 42.3552ZM20.893 42.3552L21.4248 42.3552L21.4248 40.3552L20.893 40.3552L20.893 42.3552ZM20.7539 42.3552L20.893 42.3552L20.893 40.3552L20.7539 40.3552L20.7539 42.3552ZM20.7184 42.3552H20.7539L20.7539 40.3552L20.7184 40.3552L20.7184 42.3552ZM20.7094 42.3552H20.7184L20.7184 40.3552H20.7094L20.7094 42.3552ZM20.7072 42.3552H20.7094V40.3552H20.7072V42.3552ZM20.7066 42.3552H20.7072V40.3552H20.7066V42.3552ZM21.7064 41.8552C21.7064 41.6051 21.7064 41.4804 21.7065 41.4182C21.7065 41.3867 21.7065 41.3724 21.7065 41.366C21.7065 41.3613 21.7065 41.3648 21.7065 41.3702C21.7064 41.3721 21.7064 41.3762 21.7062 41.3815C21.7062 41.385 21.7058 41.3984 21.7048 41.4155C21.7043 41.424 21.7031 41.4416 21.7007 41.4637C21.699 41.479 21.6932 41.5316 21.6769 41.5972C21.6684 41.6311 21.6516 41.6917 21.6195 41.7633C21.5884 41.833 21.526 41.9516 21.4088 42.0672C21.2759 42.1983 21.1137 42.2851 20.9442 42.3266C20.8083 42.3598 20.6879 42.3552 20.7066 42.3552V40.3552C20.6973 40.3552 20.3164 40.3356 20.0044 40.6432C19.7939 40.8508 19.7423 41.0893 19.7363 41.1132C19.72 41.1788 19.7142 41.2314 19.7125 41.2469C19.7101 41.269 19.7089 41.2866 19.7084 41.2951C19.7074 41.3124 19.707 41.326 19.7069 41.3297C19.7068 41.3353 19.7067 41.3398 19.7067 41.3421C19.7066 41.3495 19.7065 41.357 19.7065 41.36C19.7065 41.3693 19.7065 41.3862 19.7065 41.4172C19.7064 41.48 19.7064 41.6053 19.7064 41.8552H21.7064ZM21.7064 41.8552V41.3552H19.7064V41.8552H21.7064ZM20.7064 40.3552L20.2064 40.3552L20.2064 42.3552L20.7064 42.3552L20.7064 40.3552ZM19.2064 41.3552V41.8552H21.2064V41.3552H19.2064ZM20.2064 42.8552H20.7064V40.8552H20.2064V42.8552ZM21.2064 41.8554C21.2064 41.834 21.2128 41.9772 21.166 42.1369C21.1077 42.3355 20.993 42.4999 20.8521 42.619C20.7315 42.721 20.6149 42.7703 20.5557 42.7924C20.4917 42.8162 20.4386 42.8285 20.4101 42.8344C20.3542 42.846 20.3097 42.8501 20.2971 42.8512C20.2785 42.8529 20.2639 42.8537 20.2568 42.8541C20.2425 42.8548 20.2313 42.855 20.2285 42.8551C20.224 42.8552 20.2206 42.8552 20.2191 42.8553C20.2148 42.8553 20.2121 42.8553 20.2168 42.8553C20.2233 42.8553 20.2379 42.8553 20.2693 42.8552C20.3316 42.8552 20.4564 42.8552 20.7064 42.8552V40.8552C20.4565 40.8552 20.3313 40.8552 20.2685 40.8552C20.2374 40.8553 20.2208 40.8553 20.2117 40.8553C20.2085 40.8553 20.202 40.8553 20.1957 40.8554C20.1937 40.8554 20.1899 40.8555 20.1852 40.8556C20.1821 40.8556 20.1707 40.8559 20.1563 40.8566C20.1491 40.857 20.1344 40.8578 20.1159 40.8595C20.1032 40.8606 20.0587 40.8647 20.0028 40.8763C19.9945 40.878 19.7699 40.9149 19.5608 41.0917C19.4199 41.2108 19.3051 41.3752 19.2469 41.5739C19.2213 41.6608 19.2126 41.7347 19.2091 41.7825C19.2079 41.8007 19.2068 41.828 19.2066 41.8371C19.2065 41.8463 19.2064 41.8554 19.2064 41.8554H21.2064ZM21.2064 41.8558V41.8554H19.2064V41.8558H21.2064ZM21.2064 41.8566V41.8558H19.2064V41.8566H21.2064ZM21.2064 41.8577V41.8566H19.2064V41.8577H21.2064ZM21.2064 41.8591V41.8577H19.2064V41.8591H21.2064ZM21.2064 41.8608V41.8591H19.2064V41.8608H21.2064ZM21.2064 41.8629V41.8608H19.2064V41.8629H21.2064ZM21.2064 41.8652V41.8629H19.2064V41.8652H21.2064ZM21.2064 41.8678V41.8652H19.2064V41.8678H21.2064ZM21.2064 41.8708V41.8678H19.2064V41.8708H21.2064ZM21.2064 41.874V41.8708H19.2064V41.874H21.2064ZM21.2064 41.8776V41.874H19.2064V41.8776H21.2064ZM21.2064 41.8814V41.8776H19.2064V41.8814H21.2064ZM21.2064 41.8856V41.8814H19.2064V41.8856H21.2064ZM21.2064 41.89V41.8856H19.2064V41.89H21.2064ZM21.2064 41.8948V41.89H19.2064V41.8948H21.2064ZM21.2064 41.8999V41.8948H19.2064V41.8999H21.2064ZM21.2064 41.9052V41.8999H19.2064V41.9052H21.2064ZM21.2064 41.9108V41.9052H19.2064V41.9108H21.2064ZM21.2064 41.9168V41.9108H19.2064V41.9168H21.2064ZM21.2064 41.923V41.9168H19.2064V41.923H21.2064ZM21.2064 41.9295V41.923H19.2064V41.9295H21.2064ZM21.2064 41.9364V41.9295H19.2064V41.9364H21.2064ZM21.2064 41.9435V41.9364H19.2064V41.9435H21.2064ZM21.2064 41.9509V41.9435H19.2064V41.9509H21.2064ZM21.2064 41.9585V41.9509H19.2064V41.9585H21.2064ZM21.2064 41.9665V41.9585H19.2064V41.9665H21.2064ZM21.2064 41.9748V41.9665H19.2064V41.9748H21.2064ZM21.2064 41.9833V41.9748H19.2064V41.9833H21.2064ZM21.2064 41.9921V41.9833H19.2064V41.9921H21.2064ZM21.2064 42.0012V41.9921H19.2064V42.0012H21.2064ZM21.2064 42.0106V42.0012H19.2064V42.0106H21.2064ZM21.2064 42.0203V42.0106H19.2064V42.0203H21.2064ZM21.2064 42.0303V42.0203H19.2064V42.0303H21.2064ZM21.2064 42.0405V42.0303H19.2064V42.0405H21.2064ZM21.2064 42.051V42.0405H19.2064V42.051H21.2064ZM21.2064 42.0618V42.051H19.2064V42.0618H21.2064ZM21.2064 42.0728V42.0618H19.2064V42.0728H21.2064ZM21.2064 42.0842V42.0728H19.2064V42.0842H21.2064ZM21.2064 42.0958V42.0842H19.2064V42.0958H21.2064ZM21.2064 42.1076V42.0958H19.2064V42.1076H21.2064ZM21.2064 42.1198V42.1076H19.2064V42.1198H21.2064ZM21.2064 42.1322V42.1198H19.2064V42.1322H21.2064ZM21.2064 42.1449V42.1322H19.2064V42.1449H21.2064ZM21.2064 42.1578V42.1449H19.2064V42.1578H21.2064ZM21.2064 42.1711V42.1578H19.2064V42.1711H21.2064ZM21.2064 42.1846V42.1711H19.2064V42.1846H21.2064ZM21.2064 42.1983V42.1846H19.2064V42.1983H21.2064ZM21.2064 42.2123V42.1983H19.2064V42.2123H21.2064ZM21.2064 42.2266V42.2123H19.2064V42.2266H21.2064ZM21.2064 42.2411V42.2266H19.2064V42.2411H21.2064ZM21.2064 42.2559V42.2411H19.2064V42.2559H21.2064ZM21.2064 42.271V42.2559H19.2064V42.271H21.2064ZM21.2064 42.2863V42.271H19.2064V42.2863H21.2064ZM21.2064 42.3019V42.2863H19.2064V42.3019H21.2064ZM21.2064 42.3177V42.3019H19.2064V42.3177H21.2064ZM21.2064 42.3338V42.3177H19.2064V42.3338H21.2064ZM21.2064 42.3501V42.3338H19.2064V42.3501H21.2064ZM21.2064 42.3667V42.3501H19.2064V42.3667H21.2064ZM21.2064 42.3835V42.3667H19.2064V42.3835H21.2064ZM21.2064 42.4006V42.3835H19.2064V42.4006H21.2064ZM21.2064 42.418V42.4006H19.2064V42.418H21.2064ZM21.2064 42.4356V42.418H19.2064V42.4356H21.2064ZM21.2064 42.4534V42.4356H19.2064V42.4534H21.2064ZM21.2064 42.4715V42.4534H19.2064V42.4715H21.2064ZM21.2064 42.4898V42.4715H19.2064V42.4898H21.2064ZM21.2064 42.5084V42.4898H19.2064V42.5084H21.2064ZM21.2064 42.5272V42.5084H19.2064V42.5272H21.2064ZM21.2064 42.5462V42.5272H19.2064V42.5462H21.2064ZM21.2064 42.5655V42.5462H19.2064V42.5655H21.2064ZM21.2064 42.5851V42.5655H19.2064V42.5851H21.2064ZM21.2064 42.6048V42.5851H19.2064V42.6048H21.2064ZM21.2064 42.6249V42.6048H19.2064V42.6249H21.2064ZM21.2064 42.6451V42.6249H19.2064V42.6451H21.2064ZM21.2064 42.6656V42.6451H19.2064V42.6656H21.2064ZM21.2064 42.6863V42.6656H19.2064V42.6863H21.2064ZM21.2064 42.7073V42.6863H19.2064V42.7073H21.2064ZM21.2064 42.7284V42.7073H19.2064V42.7284H21.2064ZM21.2064 42.7499V42.7284H19.2064V42.7499H21.2064ZM21.2064 42.7715V42.7499H19.2064V42.7715H21.2064ZM21.2064 42.7934V42.7715H19.2064V42.7934H21.2064ZM21.2064 42.8155V42.7934H19.2064V42.8155H21.2064ZM21.2064 42.8378V42.8155H19.2064V42.8378H21.2064ZM21.2064 42.8603V42.8378H19.2064V42.8603H21.2064ZM21.2064 42.8831V42.8603H19.2064V42.8831H21.2064ZM21.2064 42.9061V42.8831H19.2064V42.9061H21.2064ZM21.2064 42.9294V42.9061H19.2064V42.9294H21.2064ZM21.2064 42.9528V42.9294H19.2064V42.9528H21.2064ZM21.2064 42.9765V42.9528H19.2064V42.9765H21.2064ZM21.2064 43.0003V42.9765H19.2064V43.0003H21.2064ZM21.2064 43.0244V43.0003H19.2064V43.0244H21.2064ZM21.2064 43.0488V43.0244H19.2064V43.0488H21.2064ZM21.2064 43.0733V43.0488H19.2064V43.0733H21.2064ZM21.2064 43.0981V43.0733H19.2064V43.0981H21.2064ZM21.2064 43.123V43.0981H19.2064V43.123H21.2064ZM21.2064 43.1482V43.123H19.2064V43.1482H21.2064ZM21.2064 43.1736V43.1482H19.2064V43.1736H21.2064ZM21.2064 43.1992V43.1736H19.2064V43.1992H21.2064ZM21.2064 43.225V43.1992H19.2064V43.225H21.2064ZM21.2064 43.251V43.225H19.2064V43.251H21.2064ZM21.2064 43.2772V43.251H19.2064V43.2772H21.2064ZM21.2064 43.3037V43.2772H19.2064V43.3037H21.2064ZM21.2064 43.3303V43.3037H19.2064V43.3303H21.2064ZM21.2064 43.3571V43.3303H19.2064V43.3571H21.2064ZM21.2064 43.3842V43.3571H19.2064V43.3842H21.2064ZM21.2064 43.4114V43.3842H19.2064V43.4114H21.2064ZM21.2064 43.4389V43.4114H19.2064V43.4389H21.2064ZM21.2064 43.4665V43.4389H19.2064V43.4665H21.2064ZM21.2064 43.4944V43.4665H19.2064V43.4944H21.2064ZM21.2064 43.5224V43.4944H19.2064V43.5224H21.2064ZM21.2064 43.5507V43.5224H19.2064V43.5507H21.2064ZM21.2064 43.5791V43.5507H19.2064V43.5791H21.2064ZM21.2064 43.6077V43.5791H19.2064V43.6077H21.2064ZM21.2064 43.6365V43.6077H19.2064V43.6365H21.2064ZM21.2064 43.6656V43.6365H19.2064V43.6656H21.2064ZM21.2064 43.6948V43.6656H19.2064V43.6948H21.2064ZM21.2064 43.7242V43.6948H19.2064V43.7242H21.2064ZM21.2064 43.7537V43.7242H19.2064V43.7537H21.2064ZM21.2064 43.7835V43.7537H19.2064V43.7835H21.2064ZM21.2064 43.8135V43.7835H19.2064V43.8135H21.2064ZM21.2064 43.8436V43.8135H19.2064V43.8436H21.2064ZM21.2064 43.874V43.8436H19.2064V43.874H21.2064ZM21.2064 43.9045V43.874H19.2064V43.9045H21.2064ZM21.2064 43.9352V43.9045H19.2064V43.9352H21.2064ZM21.2064 43.966V43.9352H19.2064V43.966H21.2064ZM21.2064 43.9971V43.966H19.2064V43.9971H21.2064ZM21.2064 44.0283V43.9971H19.2064V44.0283H21.2064ZM21.2064 44.0598V44.0283H19.2064V44.0598H21.2064ZM21.2064 44.0913V44.0598H19.2064V44.0913H21.2064ZM21.2064 44.1231V44.0913H19.2064V44.1231H21.2064ZM21.2064 44.1551V44.1231H19.2064V44.1551H21.2064ZM21.2064 44.1872V44.1551H19.2064V44.1872H21.2064ZM21.2064 44.2195V44.1872H19.2064V44.2195H21.2064ZM21.2064 44.2519V44.2195H19.2064V44.2519H21.2064ZM21.2064 44.2846V44.2519H19.2064V44.2846H21.2064ZM21.2064 44.3174V44.2846H19.2064V44.3174H21.2064ZM21.2064 44.3504V44.3174H19.2064V44.3504H21.2064ZM21.2064 44.3835V44.3504H19.2064V44.3835H21.2064ZM21.2064 44.4168V44.3835H19.2064V44.4168H21.2064ZM21.2064 44.4503V44.4168H19.2064V44.4503H21.2064ZM21.2064 44.4839V44.4503H19.2064V44.4839H21.2064ZM21.2064 44.5177V44.4839H19.2064V44.5177H21.2064ZM21.2064 44.5517V44.5177H19.2064V44.5517H21.2064ZM21.2064 44.5858V44.5517H19.2064V44.5858H21.2064ZM21.2064 44.6201V44.5858H19.2064V44.6201H21.2064ZM21.2064 44.6545V44.6201H19.2064V44.6545H21.2064ZM21.2064 44.6891V44.6545H19.2064V44.6891H21.2064ZM21.2064 44.7239V44.6891H19.2064V44.7239H21.2064ZM21.2064 44.7588V44.7239H19.2064V44.7588H21.2064ZM21.2064 44.7939V44.7588H19.2064V44.7939H21.2064ZM21.2064 44.8291V44.7939H19.2064V44.8291H21.2064ZM21.2064 44.8644V44.8291H19.2064V44.8644H21.2064ZM21.2064 44.9V44.8644H19.2064V44.9H21.2064ZM21.2064 44.9356V44.9H19.2064V44.9356H21.2064ZM21.2064 44.9715V44.9356H19.2064V44.9715H21.2064ZM21.2064 45.0074V44.9715H19.2064V45.0074H21.2064ZM21.2064 45.0436V45.0074H19.2064V45.0436H21.2064ZM21.2064 45.0798V45.0436H19.2064V45.0798H21.2064ZM21.2064 45.1162V45.0798H19.2064V45.1162H21.2064ZM21.2064 45.1528V45.1162H19.2064V45.1528H21.2064ZM21.2064 45.1895V45.1528H19.2064V45.1895H21.2064ZM21.2064 45.2263V45.1895H19.2064V45.2263H21.2064ZM21.2064 45.2633V45.2263H19.2064V45.2633H21.2064ZM21.2064 45.3004V45.2633H19.2064V45.3004H21.2064ZM21.2064 45.3377V45.3004H19.2064V45.3377H21.2064ZM21.2064 45.3751V45.3377H19.2064V45.3751H21.2064ZM21.2064 45.4126V45.3751H19.2064V45.4126H21.2064ZM21.2064 45.4503V45.4126H19.2064V45.4503H21.2064ZM21.2064 45.4881V45.4503H19.2064V45.4881H21.2064ZM21.2064 45.526V45.4881H19.2064V45.526H21.2064ZM21.2064 45.5641V45.526H19.2064V45.5641H21.2064ZM21.2064 45.6023V45.5641H19.2064V45.6023H21.2064ZM21.2064 45.6406V45.6023H19.2064V45.6406H21.2064ZM21.2064 45.679V45.6406H19.2064V45.679H21.2064ZM21.2064 45.7176V45.679H19.2064V45.7176H21.2064ZM21.2064 45.7563V45.7176H19.2064V45.7563H21.2064ZM21.2064 45.7952V45.7563H19.2064V45.7952H21.2064ZM21.2064 45.8341V45.7952H19.2064V45.8341H21.2064ZM21.2064 45.8732V45.8341H19.2064V45.8732H21.2064ZM21.2064 45.9124V45.8732H19.2064V45.9124H21.2064ZM21.2064 45.9517V45.9124H19.2064V45.9517H21.2064ZM21.2064 45.9912V45.9517H19.2064V45.9912H21.2064ZM21.2064 46.0307V45.9912H19.2064V46.0307H21.2064ZM21.2064 46.0704V46.0307H19.2064V46.0704H21.2064ZM21.2064 46.1102V46.0704H19.2064V46.1102H21.2064ZM21.2064 46.1501V46.1102H19.2064V46.1501H21.2064ZM21.2064 46.1902V46.1501H19.2064V46.1902H21.2064ZM21.2064 46.2303V46.1902H19.2064V46.2303H21.2064ZM21.2064 46.2706V46.2303H19.2064V46.2706H21.2064ZM21.2064 46.3109V46.2706H19.2064V46.3109H21.2064ZM21.2064 46.3514V46.3109H19.2064V46.3514H21.2064ZM21.2064 46.392V46.3514H19.2064V46.392H21.2064ZM21.2064 46.4327V46.392H19.2064V46.4327H21.2064ZM21.2064 46.4735V46.4327H19.2064V46.4735H21.2064ZM21.2064 46.5144V46.4735H19.2064V46.5144H21.2064ZM21.2064 46.5554V46.5144H19.2064V46.5554H21.2064ZM21.2064 46.5965V46.5554H19.2064V46.5965H21.2064ZM21.2064 46.6378V46.5965H19.2064V46.6378H21.2064ZM21.2064 46.6791V46.6378H19.2064V46.6791H21.2064ZM21.2064 46.7205V46.6791H19.2064V46.7205H21.2064ZM21.2064 46.762V46.7205H19.2064V46.762H21.2064ZM21.2064 46.8037V46.762H19.2064V46.8037H21.2064ZM21.2064 46.8454V46.8037H19.2064V46.8454H21.2064ZM21.2064 46.8872V46.8454H19.2064V46.8872H21.2064ZM21.2064 46.9291V46.8872H19.2064V46.9291H21.2064ZM21.2064 46.9711V46.9291H19.2064V46.9711H21.2064ZM21.2064 47.0132V46.9711H19.2064V47.0132H21.2064ZM21.2064 47.0554V47.0132H19.2064V47.0554H21.2064ZM21.2064 47.0977V47.0554H19.2064V47.0977H21.2064ZM21.2064 47.1401V47.0977H19.2064V47.1401H21.2064ZM21.2064 47.1825V47.1401H19.2064V47.1825H21.2064ZM21.2064 47.2251V47.1825H19.2064V47.2251H21.2064ZM21.2064 47.2677V47.2251H19.2064V47.2677H21.2064ZM21.2064 47.3104V47.2677H19.2064V47.3104H21.2064ZM21.2064 47.3532V47.3104H19.2064V47.3532H21.2064ZM21.2064 47.3961V47.3532H19.2064V47.3961H21.2064ZM21.2064 47.4391V47.3961H19.2064V47.4391H21.2064ZM21.2064 47.4822V47.4391H19.2064V47.4822H21.2064ZM21.2064 47.5253V47.4822H19.2064V47.5253H21.2064ZM21.2064 47.5685V47.5253H19.2064V47.5685H21.2064ZM21.2064 47.6118V47.5685H19.2064V47.6118H21.2064ZM21.2064 47.6552V47.6118H19.2064V47.6552H21.2064ZM21.2064 47.6986V47.6552H19.2064V47.6986H21.2064ZM21.2064 47.7421V47.6986H19.2064V47.7421H21.2064ZM21.2064 47.7857V47.7421H19.2064V47.7857H21.2064ZM21.2064 47.8294V47.7857H19.2064V47.8294H21.2064ZM21.2064 47.8731V47.8294H19.2064V47.8731H21.2064ZM21.2064 47.9169V47.8731H19.2064V47.9169H21.2064ZM21.2064 47.9608V47.9169H19.2064V47.9608H21.2064ZM21.2064 48.0048V47.9608H19.2064V48.0048H21.2064ZM21.2064 48.0488V48.0048H19.2064V48.0488H21.2064ZM21.2064 48.0928V48.0488H19.2064V48.0928H21.2064ZM21.2064 48.137V48.0928H19.2064V48.137H21.2064ZM21.2064 48.1812V48.137H19.2064V48.1812H21.2064ZM21.2064 48.2255V48.1812H19.2064V48.2255H21.2064ZM21.2064 48.2698V48.2255H19.2064V48.2698H21.2064ZM21.2064 48.3142V48.2698H19.2064V48.3142H21.2064ZM21.2064 48.3587V48.3142H19.2064V48.3587H21.2064ZM21.2064 48.4032V48.3587H19.2064V48.4032H21.2064ZM21.2064 48.4477V48.4032H19.2064V48.4477H21.2064ZM21.2064 48.4924V48.4477H19.2064V48.4924H21.2064ZM21.2064 48.5371V48.4924H19.2064V48.5371H21.2064ZM21.2064 48.5818V48.5371H19.2064V48.5818H21.2064ZM21.2064 48.6266V48.5818H19.2064V48.6266H21.2064ZM21.2064 48.6714V48.6266H19.2064V48.6714H21.2064ZM21.2064 48.7163V48.6714H19.2064V48.7163H21.2064ZM21.2064 48.7613V48.7163H19.2064V48.7613H21.2064ZM21.2064 48.8063V48.7613H19.2064V48.8063H21.2064ZM21.2064 48.8513V48.8063H19.2064V48.8513H21.2064ZM21.2064 48.8964V48.8513H19.2064V48.8964H21.2064ZM21.2064 48.9415V48.8964H19.2064V48.9415H21.2064ZM21.2064 48.9867V48.9415H19.2064V48.9867H21.2064ZM21.2064 49.0319V48.9867H19.2064V49.0319H21.2064ZM21.2064 49.0772V49.0319H19.2064V49.0772H21.2064ZM21.2064 49.1225V49.0772H19.2064V49.1225H21.2064ZM21.2064 49.1679V49.1225H19.2064V49.1679H21.2064ZM21.2064 49.2132V49.1679H19.2064V49.2132H21.2064ZM21.2064 49.2587V49.2132H19.2064V49.2587H21.2064ZM21.2064 49.3041V49.2587H19.2064V49.3041H21.2064ZM21.2064 49.3496V49.3041H19.2064V49.3496H21.2064ZM21.2064 49.3952V49.3496H19.2064V49.3952H21.2064ZM21.2064 49.4407V49.3952H19.2064V49.4407H21.2064ZM21.2064 49.4863V49.4407H19.2064V49.4863H21.2064ZM21.2064 49.532V49.4863H19.2064V49.532H21.2064ZM21.2064 49.5776V49.532H19.2064V49.5776H21.2064ZM21.2064 49.6233V49.5776H19.2064V49.6233H21.2064ZM21.2064 49.669V49.6233H19.2064V49.669H21.2064ZM21.2064 49.7148V49.669H19.2064V49.7148H21.2064ZM21.2064 49.7606V49.7148H19.2064V49.7606H21.2064ZM21.2064 49.8064V49.7606H19.2064V49.8064H21.2064ZM21.2064 49.8522V49.8064H19.2064V49.8522H21.2064ZM21.2064 49.898V49.8522H19.2064V49.898H21.2064ZM21.2064 49.9439V49.898H19.2064V49.9439H21.2064ZM21.2064 49.9898V49.9439H19.2064V49.9898H21.2064ZM21.2064 50.0357V49.9898H19.2064V50.0357H21.2064ZM21.2064 50.0817V50.0357H19.2064V50.0817H21.2064ZM21.2064 50.1276V50.0817H19.2064V50.1276H21.2064ZM21.2064 50.1736V50.1276H19.2064V50.1736H21.2064ZM21.2064 50.2195V50.1736H19.2064V50.2195H21.2064ZM21.2064 50.2655V50.2195H19.2064V50.2655H21.2064ZM21.2064 50.3116V50.2655H19.2064V50.3116H21.2064ZM21.2064 50.3576V50.3116H19.2064V50.3576H21.2064ZM21.2064 50.4036V50.3576H19.2064V50.4036H21.2064ZM21.2064 50.4497V50.4036H19.2064V50.4497H21.2064ZM21.2064 50.4957V50.4497H19.2064V50.4957H21.2064ZM21.2064 50.5418V50.4957H19.2064V50.5418H21.2064ZM21.2064 50.5878V50.5418H19.2064V50.5878H21.2064ZM21.2064 50.6339V50.5878H19.2064V50.6339H21.2064ZM21.2064 50.68V50.6339H19.2064V50.68H21.2064ZM21.2064 50.7261V50.68H19.2064V50.7261H21.2064ZM21.2064 50.7722V50.7261H19.2064V50.7722H21.2064ZM21.2064 50.8182V50.7722H19.2064V50.8182H21.2064ZM21.2064 50.8643V50.8182H19.2064V50.8643H21.2064ZM21.2064 50.9104V50.8643H19.2064V50.9104H21.2064ZM21.2064 50.9565V50.9104H19.2064V50.9565H21.2064ZM21.2064 51.0026V50.9565H19.2064V51.0026H21.2064ZM21.2064 51.0487V51.0026H19.2064V51.0487H21.2064ZM21.2064 51.0947V51.0487H19.2064V51.0947H21.2064ZM21.2064 51.1408V51.0947H19.2064V51.1408H21.2064ZM21.2064 51.1869V51.1408H19.2064V51.1869H21.2064ZM21.2064 51.2329V51.1869H19.2064V51.2329H21.2064ZM21.2064 51.279V51.2329H19.2064V51.279H21.2064ZM21.2064 51.325V51.279H19.2064V51.325H21.2064ZM21.2064 51.371V51.325H19.2064V51.371H21.2064ZM21.2064 51.417V51.371H19.2064V51.417H21.2064ZM21.2064 51.463V51.417H19.2064V51.463H21.2064ZM21.2064 51.509V51.463H19.2064V51.509H21.2064ZM21.2064 51.555V51.509H19.2064V51.555H21.2064ZM21.2064 51.6009V51.555H19.2064V51.6009H21.2064ZM21.2064 51.6469V51.6009H19.2064V51.6469H21.2064ZM21.2064 51.6928V51.6469H19.2064V51.6928H21.2064ZM21.2064 51.7387V51.6928H19.2064V51.7387H21.2064ZM21.2064 51.7846V51.7387H19.2064V51.7846H21.2064ZM21.2064 51.8304V51.7846H19.2064V51.8304H21.2064ZM21.2064 51.8762V51.8304H19.2064V51.8762H21.2064ZM21.2064 51.9221V51.8762H19.2064V51.9221H21.2064ZM21.2064 51.9678V51.9221H19.2064V51.9678H21.2064ZM21.2064 52.0136V51.9678H19.2064V52.0136H21.2064ZM21.2064 52.0593V52.0136H19.2064V52.0593H21.2064ZM21.2064 52.105V52.0593H19.2064V52.105H21.2064ZM21.2064 52.1507V52.105H19.2064V52.1507H21.2064ZM21.2064 52.1963V52.1507H19.2064V52.1963H21.2064ZM21.2064 52.2419V52.1963H19.2064V52.2419H21.2064ZM21.2064 52.2875V52.2419H19.2064V52.2875H21.2064ZM21.2064 52.333V52.2875H19.2064V52.333H21.2064ZM21.2064 52.3785V52.333H19.2064V52.3785H21.2064ZM21.2064 52.424V52.3785H19.2064V52.424H21.2064ZM21.2064 52.4694V52.424H19.2064V52.4694H21.2064ZM21.2064 52.5148V52.4694H19.2064V52.5148H21.2064ZM21.2064 52.5602V52.5148H19.2064V52.5602H21.2064ZM21.2064 52.6055V52.5602H19.2064V52.6055H21.2064ZM21.2064 52.6508V52.6055H19.2064V52.6508H21.2064ZM21.2064 52.696V52.6508H19.2064V52.696H21.2064ZM21.2064 52.7412V52.696H19.2064V52.7412H21.2064ZM21.2064 52.7863V52.7412H19.2064V52.7863H21.2064ZM21.2064 52.8314V52.7863H19.2064V52.8314H21.2064ZM21.2064 52.8765V52.8314H19.2064V52.8765H21.2064ZM21.2064 52.9215V52.8765H19.2064V52.9215H21.2064ZM21.2064 52.9664V52.9215H19.2064V52.9664H21.2064ZM21.2064 53.0113V52.9664H19.2064V53.0113H21.2064ZM21.2064 53.0562V53.0113H19.2064V53.0562H21.2064ZM21.2064 53.101V53.0562H19.2064V53.101H21.2064ZM21.2064 53.1457V53.101H19.2064V53.1457H21.2064ZM21.2064 53.1904V53.1457H19.2064V53.1904H21.2064ZM21.2064 53.235V53.1904H19.2064V53.235H21.2064ZM21.2064 53.2796V53.235H19.2064V53.2796H21.2064ZM21.2064 53.3242V53.2796H19.2064V53.3242H21.2064ZM21.2064 53.3686V53.3242H19.2064V53.3686H21.2064ZM21.2064 53.413V53.3686H19.2064V53.413H21.2064ZM21.2064 53.4574V53.413H19.2064V53.4574H21.2064ZM21.2064 53.5016V53.4574H19.2064V53.5016H21.2064ZM21.2064 53.5459V53.5016H19.2064V53.5459H21.2064ZM21.2064 53.59V53.5459H19.2064V53.59H21.2064ZM21.2064 53.6341V53.59H19.2064V53.6341H21.2064ZM21.2064 53.6781V53.6341H19.2064V53.6781H21.2064ZM21.2064 53.7221V53.6781H19.2064V53.7221H21.2064ZM21.2064 53.766V53.7221H19.2064V53.766H21.2064ZM21.2064 53.8098V53.766H19.2064V53.8098H21.2064ZM21.2064 53.8535V53.8098H19.2064V53.8535H21.2064ZM21.2064 53.8972V53.8535H19.2064V53.8972H21.2064ZM21.2064 53.9408V53.8972H19.2064V53.9408H21.2064ZM21.2064 53.9843V53.9408H19.2064V53.9843H21.2064ZM21.2064 54.0278V53.9843H19.2064V54.0278H21.2064ZM21.2064 54.0712V54.0278H19.2064V54.0712H21.2064ZM21.2064 54.1145V54.0712H19.2064V54.1145H21.2064ZM21.2064 54.1577V54.1145H19.2064V54.1577H21.2064ZM21.2064 54.2009V54.1577H19.2064V54.2009H21.2064ZM21.2064 54.2439V54.2009H19.2064V54.2439H21.2064ZM21.2064 54.2869V54.2439H19.2064V54.2869H21.2064ZM21.2064 54.3298V54.2869H19.2064V54.3298H21.2064ZM21.2064 54.3726V54.3298H19.2064V54.3726H21.2064ZM21.2064 54.4154V54.3726H19.2064V54.4154H21.2064ZM21.2064 54.458V54.4154H19.2064V54.458H21.2064ZM21.2064 54.5006V54.458H19.2064V54.5006H21.2064ZM21.2064 54.543V54.5006H19.2064V54.543H21.2064ZM21.2064 54.5854V54.543H19.2064V54.5854H21.2064ZM21.2064 54.6277V54.5854H19.2064V54.6277H21.2064ZM21.2064 54.6699V54.6277H19.2064V54.6699H21.2064ZM21.2064 54.712V54.6699H19.2064V54.712H21.2064ZM21.2064 54.7541V54.712H19.2064V54.7541H21.2064ZM21.2064 54.796V54.7541H19.2064V54.796H21.2064ZM21.2064 54.8378V54.796H19.2064V54.8378H21.2064ZM21.2064 54.8795V54.8378H19.2064V54.8795H21.2064ZM21.2064 54.9212V54.8795H19.2064V54.9212H21.2064ZM21.2064 54.9627V54.9212H19.2064V54.9627H21.2064ZM21.2064 55.0042V54.9627H19.2064V55.0042H21.2064ZM21.2064 55.0455V55.0042H19.2064V55.0455H21.2064ZM21.2064 55.0867V55.0455H19.2064V55.0867H21.2064ZM21.2064 55.1279V55.0867H19.2064V55.1279H21.2064ZM21.2064 55.1689V55.1279H19.2064V55.1689H21.2064ZM21.2064 55.2098V55.1689H19.2064V55.2098H21.2064ZM21.2064 55.2506V55.2098H19.2064V55.2506H21.2064ZM21.2064 55.2913V55.2506H19.2064V55.2913H21.2064ZM21.2064 55.332V55.2913H19.2064V55.332H21.2064ZM21.2064 55.3724V55.332H19.2064V55.3724H21.2064ZM21.2064 55.4128V55.3724H19.2064V55.4128H21.2064ZM21.2064 55.4531V55.4128H19.2064V55.4531H21.2064ZM21.2064 55.4933V55.4531H19.2064V55.4933H21.2064ZM21.2064 55.5333V55.4933H19.2064V55.5333H21.2064ZM21.2064 55.5732V55.5333H19.2064V55.5732H21.2064ZM21.2064 55.6131V55.5732H19.2064V55.6131H21.2064ZM21.2064 55.6528V55.6131H19.2064V55.6528H21.2064ZM21.2064 55.6923V55.6528H19.2064V55.6923H21.2064ZM21.2064 55.7318V55.6923H19.2064V55.7318H21.2064ZM21.2064 55.7711V55.7318H19.2064V55.7711H21.2064ZM21.2064 55.8104V55.7711H19.2064V55.8104H21.2064ZM21.2064 55.8495V55.8104H19.2064V55.8495H21.2064ZM21.2064 55.8884V55.8495H19.2064V55.8884H21.2064ZM21.2064 55.9273V55.8884H19.2064V55.9273H21.2064ZM21.2064 55.966V55.9273H19.2064V55.966H21.2064ZM21.2064 56.0046V55.966H19.2064V56.0046H21.2064ZM21.2064 56.0431V56.0046H19.2064V56.0431H21.2064ZM21.2064 56.0814V56.0431H19.2064V56.0814H21.2064ZM21.2064 56.1196V56.0814H19.2064V56.1196H21.2064ZM21.2064 56.1577V56.1196H19.2064V56.1577H21.2064ZM21.2064 56.1957V56.1577H19.2064V56.1957H21.2064ZM21.2064 56.2335V56.1957H19.2064V56.2335H21.2064ZM21.2064 56.2712V56.2335H19.2064V56.2712H21.2064ZM21.2064 56.3087V56.2712H19.2064V56.3087H21.2064ZM21.2064 56.3462V56.3087H19.2064V56.3462H21.2064ZM21.2064 56.3834V56.3462H19.2064V56.3834H21.2064ZM21.2064 56.4206V56.3834H19.2064V56.4206H21.2064ZM21.2064 56.4576V56.4206H19.2064V56.4576H21.2064ZM21.2064 56.4944V56.4576H19.2064V56.4944H21.2064ZM21.2064 56.5311V56.4944H19.2064V56.5311H21.2064ZM21.2064 56.5677V56.5311H19.2064V56.5677H21.2064ZM21.2064 56.6041V56.5677H19.2064V56.6041H21.2064ZM21.2064 56.6404V56.6041H19.2064V56.6404H21.2064ZM21.2064 56.6766V56.6404H19.2064V56.6766H21.2064ZM21.2064 56.7126V56.6766H19.2064V56.7126H21.2064ZM21.2064 56.7484V56.7126H19.2064V56.7484H21.2064ZM21.2064 56.7841V56.7484H19.2064V56.7841H21.2064ZM21.2064 56.8196V56.7841H19.2064V56.8196H21.2064ZM21.2064 56.855V56.8196H19.2064V56.855H21.2064ZM21.2064 56.8903V56.855H19.2064V56.8903H21.2064ZM21.2064 56.9254V56.8903H19.2064V56.9254H21.2064ZM21.2064 56.9603V56.9254H19.2064V56.9603H21.2064ZM21.2064 56.9951V56.9603H19.2064V56.9951H21.2064ZM21.2064 57.0297V56.9951H19.2064V57.0297H21.2064ZM21.2064 57.0642V57.0297H19.2064V57.0642H21.2064ZM21.2064 57.0985V57.0642H19.2064V57.0985H21.2064ZM21.2064 57.1326V57.0985H19.2064V57.1326H21.2064ZM21.2064 57.1666V57.1326H19.2064V57.1666H21.2064ZM21.2064 57.2004V57.1666H19.2064V57.2004H21.2064ZM21.2064 57.2341V57.2004H19.2064V57.2341H21.2064ZM21.2064 57.2676V57.2341H19.2064V57.2676H21.2064ZM21.2064 57.3009V57.2676H19.2064V57.3009H21.2064ZM21.2064 57.3341V57.3009H19.2064V57.3341H21.2064ZM21.2064 57.3671V57.3341H19.2064V57.3671H21.2064ZM21.2064 57.3999V57.3671H19.2064V57.3999H21.2064ZM21.2064 57.4326V57.3999H19.2064V57.4326H21.2064ZM21.2064 57.4651V57.4326H19.2064V57.4651H21.2064ZM21.2064 57.4974V57.4651H19.2064V57.4974H21.2064ZM21.2064 57.5295V57.4974H19.2064V57.5295H21.2064ZM21.2064 57.5615V57.5295H19.2064V57.5615H21.2064ZM21.2064 57.5933V57.5615H19.2064V57.5933H21.2064ZM21.2064 57.6249V57.5933H19.2064V57.6249H21.2064ZM21.2064 57.6563V57.6249H19.2064V57.6563H21.2064ZM21.2064 57.6876V57.6563H19.2064V57.6876H21.2064ZM21.2064 57.7187V57.6876H19.2064V57.7187H21.2064ZM21.2064 57.7496V57.7187H19.2064V57.7496H21.2064ZM21.2064 57.7803V57.7496H19.2064V57.7803H21.2064ZM21.2064 57.8109V57.7803H19.2064V57.8109H21.2064ZM21.2064 57.8412V57.8109H19.2064V57.8412H21.2064ZM21.2064 57.8714V57.8412H19.2064V57.8714H21.2064ZM21.2064 57.9014V57.8714H19.2064V57.9014H21.2064ZM21.2064 57.9312V57.9014H19.2064V57.9312H21.2064ZM21.2064 57.9608V57.9312H19.2064V57.9608H21.2064ZM21.2064 57.9902V57.9608H19.2064V57.9902H21.2064ZM21.2064 58.0194V57.9902H19.2064V58.0194H21.2064ZM21.2064 58.0485V58.0194H19.2064V58.0485H21.2064ZM21.2064 58.0773V58.0485H19.2064V58.0773H21.2064ZM21.2064 58.106V58.0773H19.2064V58.106H21.2064ZM21.2064 58.1345V58.106H19.2064V58.1345H21.2064ZM21.2064 58.1627V58.1345H19.2064V58.1627H21.2064ZM21.2064 58.1908V58.1627H19.2064V58.1908H21.2064ZM21.2064 58.2187V58.1908H19.2064V58.2187H21.2064ZM21.2064 58.2463V58.2187H19.2064V58.2463H21.2064ZM21.2064 58.2738V58.2463H19.2064V58.2738H21.2064ZM21.2064 58.3011V58.2738H19.2064V58.3011H21.2064ZM21.2064 58.3282V58.3011H19.2064V58.3282H21.2064ZM21.2064 58.355V58.3282H19.2064V58.355H21.2064ZM21.2064 58.3817V58.355H19.2064V58.3817H21.2064ZM21.2064 58.4082V58.3817H19.2064V58.4082H21.2064ZM21.2064 58.4344V58.4082H19.2064V58.4344H21.2064ZM21.2064 58.4605V58.4344H19.2064V58.4605H21.2064ZM21.2064 58.4863V58.4605H19.2064V58.4863H21.2064ZM21.2064 58.5119V58.4863H19.2064V58.5119H21.2064ZM21.2064 58.5373V58.5119H19.2064V58.5373H21.2064ZM21.2064 58.5626V58.5373H19.2064V58.5626H21.2064ZM21.2064 58.5876V58.5626H19.2064V58.5876H21.2064ZM21.2064 58.6123V58.5876H19.2064V58.6123H21.2064ZM21.2064 58.6369V58.6123H19.2064V58.6369H21.2064ZM21.2064 58.6613V58.6369H19.2064V58.6613H21.2064ZM21.2064 58.6854V58.6613H19.2064V58.6854H21.2064ZM21.2064 58.7093V58.6854H19.2064V58.7093H21.2064ZM21.2064 58.733V58.7093H19.2064V58.733H21.2064ZM21.2064 58.7565V58.733H19.2064V58.7565H21.2064ZM21.2064 58.7797V58.7565H19.2064V58.7797H21.2064ZM21.2064 58.8028V58.7797H19.2064V58.8028H21.2064ZM21.2064 58.8256V58.8028H19.2064V58.8256H21.2064ZM21.2064 58.8482V58.8256H19.2064V58.8482H21.2064ZM21.2064 58.8705V58.8482H19.2064V58.8705H21.2064ZM21.2064 58.8926V58.8705H19.2064V58.8926H21.2064ZM21.2064 58.9146V58.8926H19.2064V58.9146H21.2064ZM21.2064 58.9362V58.9146H19.2064V58.9362H21.2064ZM21.2064 58.9577V58.9362H19.2064V58.9577H21.2064ZM21.2064 58.9789V58.9577H19.2064V58.9789H21.2064ZM21.2064 58.9999V58.9789H19.2064V58.9999H21.2064ZM21.2064 59.0206V58.9999H19.2064V59.0206H21.2064ZM21.2064 59.0411V59.0206H19.2064V59.0411H21.2064ZM21.2064 59.0614V59.0411H19.2064V59.0614H21.2064ZM20.7064 58.5614C20.9826 58.5614 21.2064 58.7853 21.2064 59.0614H19.2064C19.2064 59.8899 19.878 60.5614 20.7064 60.5614V58.5614ZM20.2064 59.0614C20.2064 58.7853 20.4303 58.5614 20.7064 58.5614V60.5614C21.5348 60.5614 22.2064 59.8899 22.2064 59.0614H20.2064ZM20.2064 59.0411V59.0614H22.2064V59.0411H20.2064ZM20.2064 59.0206V59.0411H22.2064V59.0206H20.2064ZM20.2064 58.9999V59.0206H22.2064V58.9999H20.2064ZM20.2064 58.9789V58.9999H22.2064V58.9789H20.2064ZM20.2064 58.9577V58.9789H22.2064V58.9577H20.2064ZM20.2064 58.9362V58.9577H22.2064V58.9362H20.2064ZM20.2064 58.9146V58.9362H22.2064V58.9146H20.2064ZM20.2064 58.8926V58.9146H22.2064V58.8926H20.2064ZM20.2064 58.8705V58.8926H22.2064V58.8705H20.2064ZM20.2064 58.8482V58.8705H22.2064V58.8482H20.2064ZM20.2064 58.8256V58.8482H22.2064V58.8256H20.2064ZM20.2064 58.8028V58.8256H22.2064V58.8028H20.2064ZM20.2064 58.7797V58.8028H22.2064V58.7797H20.2064ZM20.2064 58.7565V58.7797H22.2064V58.7565H20.2064ZM20.2064 58.733V58.7565H22.2064V58.733H20.2064ZM20.2064 58.7093V58.733H22.2064V58.7093H20.2064ZM20.2064 58.6854V58.7093H22.2064V58.6854H20.2064ZM20.2064 58.6613V58.6854H22.2064V58.6613H20.2064ZM20.2064 58.6369V58.6613H22.2064V58.6369H20.2064ZM20.2064 58.6123V58.6369H22.2064V58.6123H20.2064ZM20.2064 58.5876V58.6123H22.2064V58.5876H20.2064ZM20.2064 58.5626V58.5876H22.2064V58.5626H20.2064ZM20.2064 58.5373V58.5626H22.2064V58.5373H20.2064ZM20.2064 58.5119V58.5373H22.2064V58.5119H20.2064ZM20.2064 58.4863V58.5119H22.2064V58.4863H20.2064ZM20.2064 58.4605V58.4863H22.2064V58.4605H20.2064ZM20.2064 58.4344V58.4605H22.2064V58.4344H20.2064ZM20.2064 58.4082V58.4344H22.2064V58.4082H20.2064ZM20.2064 58.3817V58.4082H22.2064V58.3817H20.2064ZM20.2064 58.355V58.3817H22.2064V58.355H20.2064ZM20.2064 58.3282V58.355H22.2064V58.3282H20.2064ZM20.2064 58.3011V58.3282H22.2064V58.3011H20.2064ZM20.2064 58.2738V58.3011H22.2064V58.2738H20.2064ZM20.2064 58.2463V58.2738H22.2064V58.2463H20.2064ZM20.2064 58.2187V58.2463H22.2064V58.2187H20.2064ZM20.2064 58.1908V58.2187H22.2064V58.1908H20.2064ZM20.2064 58.1627V58.1908H22.2064V58.1627H20.2064ZM20.2064 58.1345V58.1627H22.2064V58.1345H20.2064ZM20.2064 58.106V58.1345H22.2064V58.106H20.2064ZM20.2064 58.0773V58.106H22.2064V58.0773H20.2064ZM20.2064 58.0485V58.0773H22.2064V58.0485H20.2064ZM20.2064 58.0194V58.0485H22.2064V58.0194H20.2064ZM20.2064 57.9902V58.0194H22.2064V57.9902H20.2064ZM20.2064 57.9608V57.9902H22.2064V57.9608H20.2064ZM20.2064 57.9312V57.9608H22.2064V57.9312H20.2064ZM20.2064 57.9014V57.9312H22.2064V57.9014H20.2064ZM20.2064 57.8714V57.9014H22.2064V57.8714H20.2064ZM20.2064 57.8412V57.8714H22.2064V57.8412H20.2064ZM20.2064 57.8109V57.8412H22.2064V57.8109H20.2064ZM20.2064 57.7803V57.8109H22.2064V57.7803H20.2064ZM20.2064 57.7496V57.7803H22.2064V57.7496H20.2064ZM20.2064 57.7187V57.7496H22.2064V57.7187H20.2064ZM20.2064 57.6876V57.7187H22.2064V57.6876H20.2064ZM20.2064 57.6563V57.6876H22.2064V57.6563H20.2064ZM20.2064 57.6249V57.6563H22.2064V57.6249H20.2064ZM20.2064 57.5933V57.6249H22.2064V57.5933H20.2064ZM20.2064 57.5615V57.5933H22.2064V57.5615H20.2064ZM20.2064 57.5295V57.5615H22.2064V57.5295H20.2064ZM20.2064 57.4974V57.5295H22.2064V57.4974H20.2064ZM20.2064 57.4651V57.4974H22.2064V57.4651H20.2064ZM20.2064 57.4326V57.4651H22.2064V57.4326H20.2064ZM20.2064 57.3999V57.4326H22.2064V57.3999H20.2064ZM20.2064 57.3671V57.3999H22.2064V57.3671H20.2064ZM20.2064 57.3341V57.3671H22.2064V57.3341H20.2064ZM20.2064 57.3009V57.3341H22.2064V57.3009H20.2064ZM20.2064 57.2676V57.3009H22.2064V57.2676H20.2064ZM20.2064 57.2341V57.2676H22.2064V57.2341H20.2064ZM20.2064 57.2004V57.2341H22.2064V57.2004H20.2064ZM20.2064 57.1666V57.2004H22.2064V57.1666H20.2064ZM20.2064 57.1326V57.1666H22.2064V57.1326H20.2064ZM20.2064 57.0985V57.1326H22.2064V57.0985H20.2064ZM20.2064 57.0642V57.0985H22.2064V57.0642H20.2064ZM20.2064 57.0297V57.0642H22.2064V57.0297H20.2064ZM20.2064 56.9951V57.0297H22.2064V56.9951H20.2064ZM20.2064 56.9603V56.9951H22.2064V56.9603H20.2064ZM20.2064 56.9254V56.9603H22.2064V56.9254H20.2064ZM20.2064 56.8903V56.9254H22.2064V56.8903H20.2064ZM20.2064 56.855V56.8903H22.2064V56.855H20.2064ZM20.2064 56.8196V56.855H22.2064V56.8196H20.2064ZM20.2064 56.7841V56.8196H22.2064V56.7841H20.2064ZM20.2064 56.7484V56.7841H22.2064V56.7484H20.2064ZM20.2064 56.7126V56.7484H22.2064V56.7126H20.2064ZM20.2064 56.6766V56.7126H22.2064V56.6766H20.2064ZM20.2064 56.6404V56.6766H22.2064V56.6404H20.2064ZM20.2064 56.6041V56.6404H22.2064V56.6041H20.2064ZM20.2064 56.5677V56.6041H22.2064V56.5677H20.2064ZM20.2064 56.5311V56.5677H22.2064V56.5311H20.2064ZM20.2064 56.4944V56.5311H22.2064V56.4944H20.2064ZM20.2064 56.4576V56.4944H22.2064V56.4576H20.2064ZM20.2064 56.4206V56.4576H22.2064V56.4206H20.2064ZM20.2064 56.3834V56.4206H22.2064V56.3834H20.2064ZM20.2064 56.3462V56.3834H22.2064V56.3462H20.2064ZM20.2064 56.3087V56.3462H22.2064V56.3087H20.2064ZM20.2064 56.2712V56.3087H22.2064V56.2712H20.2064ZM20.2064 56.2335V56.2712H22.2064V56.2335H20.2064ZM20.2064 56.1957V56.2335H22.2064V56.1957H20.2064ZM20.2064 56.1577V56.1957H22.2064V56.1577H20.2064ZM20.2064 56.1196V56.1577H22.2064V56.1196H20.2064ZM20.2064 56.0814V56.1196H22.2064V56.0814H20.2064ZM20.2064 56.0431V56.0814H22.2064V56.0431H20.2064ZM20.2064 56.0046V56.0431H22.2064V56.0046H20.2064ZM20.2064 55.966V56.0046H22.2064V55.966H20.2064ZM20.2064 55.9273V55.966H22.2064V55.9273H20.2064ZM20.2064 55.8884V55.9273H22.2064V55.8884H20.2064ZM20.2064 55.8495V55.8884H22.2064V55.8495H20.2064ZM20.2064 55.8104V55.8495H22.2064V55.8104H20.2064ZM20.2064 55.7711V55.8104H22.2064V55.7711H20.2064ZM20.2064 55.7318V55.7711H22.2064V55.7318H20.2064ZM20.2064 55.6923V55.7318H22.2064V55.6923H20.2064ZM20.2064 55.6528V55.6923H22.2064V55.6528H20.2064ZM20.2064 55.6131V55.6528H22.2064V55.6131H20.2064ZM20.2064 55.5732V55.6131H22.2064V55.5732H20.2064ZM20.2064 55.5333V55.5732H22.2064V55.5333H20.2064ZM20.2064 55.4933V55.5333H22.2064V55.4933H20.2064ZM20.2064 55.4531V55.4933H22.2064V55.4531H20.2064ZM20.2064 55.4128V55.4531H22.2064V55.4128H20.2064ZM20.2064 55.3724V55.4128H22.2064V55.3724H20.2064ZM20.2064 55.332V55.3724H22.2064V55.332H20.2064ZM20.2064 55.2913V55.332H22.2064V55.2913H20.2064ZM20.2064 55.2506V55.2913H22.2064V55.2506H20.2064ZM20.2064 55.2098V55.2506H22.2064V55.2098H20.2064ZM20.2064 55.1689V55.2098H22.2064V55.1689H20.2064ZM20.2064 55.1279V55.1689H22.2064V55.1279H20.2064ZM20.2064 55.0867V55.1279H22.2064V55.0867H20.2064ZM20.2064 55.0455V55.0867H22.2064V55.0455H20.2064ZM20.2064 55.0042V55.0455H22.2064V55.0042H20.2064ZM20.2064 54.9627V55.0042H22.2064V54.9627H20.2064ZM20.2064 54.9212V54.9627H22.2064V54.9212H20.2064ZM20.2064 54.8795V54.9212H22.2064V54.8795H20.2064ZM20.2064 54.8378V54.8795H22.2064V54.8378H20.2064ZM20.2064 54.796V54.8378H22.2064V54.796H20.2064ZM20.2064 54.7541V54.796H22.2064V54.7541H20.2064ZM20.2064 54.712V54.7541H22.2064V54.712H20.2064ZM20.2064 54.6699V54.712H22.2064V54.6699H20.2064ZM20.2064 54.6277V54.6699H22.2064V54.6277H20.2064ZM20.2064 54.5854V54.6277H22.2064V54.5854H20.2064ZM20.2064 54.543V54.5854H22.2064V54.543H20.2064ZM20.2064 54.5006V54.543H22.2064V54.5006H20.2064ZM20.2064 54.458V54.5006H22.2064V54.458H20.2064ZM20.2064 54.4154V54.458H22.2064V54.4154H20.2064ZM20.2064 54.3726V54.4154H22.2064V54.3726H20.2064ZM20.2064 54.3298V54.3726H22.2064V54.3298H20.2064ZM20.2064 54.2869V54.3298H22.2064V54.2869H20.2064ZM20.2064 54.2439V54.2869H22.2064V54.2439H20.2064ZM20.2064 54.2009V54.2439H22.2064V54.2009H20.2064ZM20.2064 54.1577V54.2009H22.2064V54.1577H20.2064ZM20.2064 54.1145V54.1577H22.2064V54.1145H20.2064ZM20.2064 54.0712V54.1145H22.2064V54.0712H20.2064ZM20.2064 54.0278V54.0712H22.2064V54.0278H20.2064ZM20.2064 53.9843V54.0278H22.2064V53.9843H20.2064ZM20.2064 53.9408V53.9843H22.2064V53.9408H20.2064ZM20.2064 53.8972V53.9408H22.2064V53.8972H20.2064ZM20.2064 53.8535V53.8972H22.2064V53.8535H20.2064ZM20.2064 53.8098V53.8535H22.2064V53.8098H20.2064ZM20.2064 53.766V53.8098H22.2064V53.766H20.2064ZM20.2064 53.7221V53.766H22.2064V53.7221H20.2064ZM20.2064 53.6781V53.7221H22.2064V53.6781H20.2064ZM20.2064 53.6341V53.6781H22.2064V53.6341H20.2064ZM20.2064 53.59V53.6341H22.2064V53.59H20.2064ZM20.2064 53.5459V53.59H22.2064V53.5459H20.2064ZM20.2064 53.5016V53.5459H22.2064V53.5016H20.2064ZM20.2064 53.4574V53.5016H22.2064V53.4574H20.2064ZM20.2064 53.413V53.4574H22.2064V53.413H20.2064ZM20.2064 53.3686V53.413H22.2064V53.3686H20.2064ZM20.2064 53.3242V53.3686H22.2064V53.3242H20.2064ZM20.2064 53.2796V53.3242H22.2064V53.2796H20.2064ZM20.2064 53.235V53.2796H22.2064V53.235H20.2064ZM20.2064 53.1904V53.235H22.2064V53.1904H20.2064ZM20.2064 53.1457V53.1904H22.2064V53.1457H20.2064ZM20.2064 53.101V53.1457H22.2064V53.101H20.2064ZM20.2064 53.0562V53.101H22.2064V53.0562H20.2064ZM20.2064 53.0113V53.0562H22.2064V53.0113H20.2064ZM20.2064 52.9664V53.0113H22.2064V52.9664H20.2064ZM20.2064 52.9215V52.9664H22.2064V52.9215H20.2064ZM20.2064 52.8765V52.9215H22.2064V52.8765H20.2064ZM20.2064 52.8314V52.8765H22.2064V52.8314H20.2064ZM20.2064 52.7863V52.8314H22.2064V52.7863H20.2064ZM20.2064 52.7412V52.7863H22.2064V52.7412H20.2064ZM20.2064 52.696V52.7412H22.2064V52.696H20.2064ZM20.2064 52.6508V52.696H22.2064V52.6508H20.2064ZM20.2064 52.6055V52.6508H22.2064V52.6055H20.2064ZM20.2064 52.5602V52.6055H22.2064V52.5602H20.2064ZM20.2064 52.5148V52.5602H22.2064V52.5148H20.2064ZM20.2064 52.4694V52.5148H22.2064V52.4694H20.2064ZM20.2064 52.424V52.4694H22.2064V52.424H20.2064ZM20.2064 52.3785V52.424H22.2064V52.3785H20.2064ZM20.2064 52.333V52.3785H22.2064V52.333H20.2064ZM20.2064 52.2875V52.333H22.2064V52.2875H20.2064ZM20.2064 52.2419V52.2875H22.2064V52.2419H20.2064ZM20.2064 52.1963V52.2419H22.2064V52.1963H20.2064ZM20.2064 52.1507V52.1963H22.2064V52.1507H20.2064ZM20.2064 52.105V52.1507H22.2064V52.105H20.2064ZM20.2064 52.0593V52.105H22.2064V52.0593H20.2064ZM20.2064 52.0136V52.0593H22.2064V52.0136H20.2064ZM20.2064 51.9678V52.0136H22.2064V51.9678H20.2064ZM20.2064 51.9221V51.9678H22.2064V51.9221H20.2064ZM20.2064 51.8762V51.9221H22.2064V51.8762H20.2064ZM20.2064 51.8304V51.8762H22.2064V51.8304H20.2064ZM20.2064 51.7846V51.8304H22.2064V51.7846H20.2064ZM20.2064 51.7387V51.7846H22.2064V51.7387H20.2064ZM20.2064 51.6928V51.7387H22.2064V51.6928H20.2064ZM20.2064 51.6469V51.6928H22.2064V51.6469H20.2064ZM20.2064 51.6009V51.6469H22.2064V51.6009H20.2064ZM20.2064 51.555V51.6009H22.2064V51.555H20.2064ZM20.2064 51.509V51.555H22.2064V51.509H20.2064ZM20.2064 51.463V51.509H22.2064V51.463H20.2064ZM20.2064 51.417V51.463H22.2064V51.417H20.2064ZM20.2064 51.371V51.417H22.2064V51.371H20.2064ZM20.2064 51.325V51.371H22.2064V51.325H20.2064ZM20.2064 51.279V51.325H22.2064V51.279H20.2064ZM20.2064 51.2329V51.279H22.2064V51.2329H20.2064ZM20.2064 51.1869V51.2329H22.2064V51.1869H20.2064ZM20.2064 51.1408V51.1869H22.2064V51.1408H20.2064ZM20.2064 51.0947V51.1408H22.2064V51.0947H20.2064ZM20.2064 51.0487V51.0947H22.2064V51.0487H20.2064ZM20.2064 51.0026V51.0487H22.2064V51.0026H20.2064ZM20.2064 50.9565V51.0026H22.2064V50.9565H20.2064ZM20.2064 50.9104V50.9565H22.2064V50.9104H20.2064ZM20.2064 50.8643V50.9104H22.2064V50.8643H20.2064ZM20.2064 50.8182V50.8643H22.2064V50.8182H20.2064ZM20.2064 50.7722V50.8182H22.2064V50.7722H20.2064ZM20.2064 50.7261V50.7722H22.2064V50.7261H20.2064ZM20.2064 50.68V50.7261H22.2064V50.68H20.2064ZM20.2064 50.6339V50.68H22.2064V50.6339H20.2064ZM20.2064 50.5878V50.6339H22.2064V50.5878H20.2064ZM20.2064 50.5418V50.5878H22.2064V50.5418H20.2064ZM20.2064 50.4957V50.5418H22.2064V50.4957H20.2064ZM20.2064 50.4497V50.4957H22.2064V50.4497H20.2064ZM20.2064 50.4036V50.4497H22.2064V50.4036H20.2064ZM20.2064 50.3576V50.4036H22.2064V50.3576H20.2064ZM20.2064 50.3116V50.3576H22.2064V50.3116H20.2064ZM20.2064 50.2655V50.3116H22.2064V50.2655H20.2064ZM20.2064 50.2195V50.2655H22.2064V50.2195H20.2064ZM20.2064 50.1736V50.2195H22.2064V50.1736H20.2064ZM20.2064 50.1276V50.1736H22.2064V50.1276H20.2064ZM20.2064 50.0817V50.1276H22.2064V50.0817H20.2064ZM20.2064 50.0357V50.0817H22.2064V50.0357H20.2064ZM20.2064 49.9898V50.0357H22.2064V49.9898H20.2064ZM20.2064 49.9439V49.9898H22.2064V49.9439H20.2064ZM20.2064 49.898V49.9439H22.2064V49.898H20.2064ZM20.2064 49.8522V49.898H22.2064V49.8522H20.2064ZM20.2064 49.8064V49.8522H22.2064V49.8064H20.2064ZM20.2064 49.7606V49.8064H22.2064V49.7606H20.2064ZM20.2064 49.7148V49.7606H22.2064V49.7148H20.2064ZM20.2064 49.669V49.7148H22.2064V49.669H20.2064ZM20.2064 49.6233V49.669H22.2064V49.6233H20.2064ZM20.2064 49.5776V49.6233H22.2064V49.5776H20.2064ZM20.2064 49.532V49.5776H22.2064V49.532H20.2064ZM20.2064 49.4863V49.532H22.2064V49.4863H20.2064ZM20.2064 49.4407V49.4863H22.2064V49.4407H20.2064ZM20.2064 49.3952V49.4407H22.2064V49.3952H20.2064ZM20.2064 49.3496V49.3952H22.2064V49.3496H20.2064ZM20.2064 49.3041V49.3496H22.2064V49.3041H20.2064ZM20.2064 49.2587V49.3041H22.2064V49.2587H20.2064ZM20.2064 49.2132V49.2587H22.2064V49.2132H20.2064ZM20.2064 49.1679V49.2132H22.2064V49.1679H20.2064ZM20.2064 49.1225V49.1679H22.2064V49.1225H20.2064ZM20.2064 49.0772V49.1225H22.2064V49.0772H20.2064ZM20.2064 49.0319V49.0772H22.2064V49.0319H20.2064ZM20.2064 48.9867V49.0319H22.2064V48.9867H20.2064ZM20.2064 48.9415V48.9867H22.2064V48.9415H20.2064ZM20.2064 48.8964V48.9415H22.2064V48.8964H20.2064ZM20.2064 48.8513V48.8964H22.2064V48.8513H20.2064ZM20.2064 48.8063V48.8513H22.2064V48.8063H20.2064ZM20.2064 48.7613V48.8063H22.2064V48.7613H20.2064ZM20.2064 48.7163V48.7613H22.2064V48.7163H20.2064ZM20.2064 48.6714V48.7163H22.2064V48.6714H20.2064ZM20.2064 48.6266V48.6714H22.2064V48.6266H20.2064ZM20.2064 48.5818V48.6266H22.2064V48.5818H20.2064ZM20.2064 48.5371V48.5818H22.2064V48.5371H20.2064ZM20.2064 48.4924V48.5371H22.2064V48.4924H20.2064ZM20.2064 48.4477V48.4924H22.2064V48.4477H20.2064ZM20.2064 48.4032V48.4477H22.2064V48.4032H20.2064ZM20.2064 48.3587V48.4032H22.2064V48.3587H20.2064ZM20.2064 48.3142V48.3587H22.2064V48.3142H20.2064ZM20.2064 48.2698V48.3142H22.2064V48.2698H20.2064ZM20.2064 48.2255V48.2698H22.2064V48.2255H20.2064ZM20.2064 48.1812V48.2255H22.2064V48.1812H20.2064ZM20.2064 48.137V48.1812H22.2064V48.137H20.2064ZM20.2064 48.0928V48.137H22.2064V48.0928H20.2064ZM20.2064 48.0488V48.0928H22.2064V48.0488H20.2064ZM20.2064 48.0048V48.0488H22.2064V48.0048H20.2064ZM20.2064 47.9608V48.0048H22.2064V47.9608H20.2064ZM20.2064 47.9169V47.9608H22.2064V47.9169H20.2064ZM20.2064 47.8731V47.9169H22.2064V47.8731H20.2064ZM20.2064 47.8294V47.8731H22.2064V47.8294H20.2064ZM20.2064 47.7857V47.8294H22.2064V47.7857H20.2064ZM20.2064 47.7421V47.7857H22.2064V47.7421H20.2064ZM20.2064 47.6986V47.7421H22.2064V47.6986H20.2064ZM20.2064 47.6552V47.6986H22.2064V47.6552H20.2064ZM20.2064 47.6118V47.6552H22.2064V47.6118H20.2064ZM20.2064 47.5685V47.6118H22.2064V47.5685H20.2064ZM20.2064 47.5253V47.5685H22.2064V47.5253H20.2064ZM20.2064 47.4822V47.5253H22.2064V47.4822H20.2064ZM20.2064 47.4391V47.4822H22.2064V47.4391H20.2064ZM20.2064 47.3961V47.4391H22.2064V47.3961H20.2064ZM20.2064 47.3532V47.3961H22.2064V47.3532H20.2064ZM20.2064 47.3104V47.3532H22.2064V47.3104H20.2064ZM20.2064 47.2677V47.3104H22.2064V47.2677H20.2064ZM20.2064 47.2251V47.2677H22.2064V47.2251H20.2064ZM20.2064 47.1825V47.2251H22.2064V47.1825H20.2064ZM20.2064 47.1401V47.1825H22.2064V47.1401H20.2064ZM20.2064 47.0977V47.1401H22.2064V47.0977H20.2064ZM20.2064 47.0554V47.0977H22.2064V47.0554H20.2064ZM20.2064 47.0132V47.0554H22.2064V47.0132H20.2064ZM20.2064 46.9711V47.0132H22.2064V46.9711H20.2064ZM20.2064 46.9291V46.9711H22.2064V46.9291H20.2064ZM20.2064 46.8872V46.9291H22.2064V46.8872H20.2064ZM20.2064 46.8454V46.8872H22.2064V46.8454H20.2064ZM20.2064 46.8037V46.8454H22.2064V46.8037H20.2064ZM20.2064 46.762V46.8037H22.2064V46.762H20.2064ZM20.2064 46.7205V46.762H22.2064V46.7205H20.2064ZM20.2064 46.6791V46.7205H22.2064V46.6791H20.2064ZM20.2064 46.6378V46.6791H22.2064V46.6378H20.2064ZM20.2064 46.5965V46.6378H22.2064V46.5965H20.2064ZM20.2064 46.5554V46.5965H22.2064V46.5554H20.2064ZM20.2064 46.5144V46.5554H22.2064V46.5144H20.2064ZM20.2064 46.4735V46.5144H22.2064V46.4735H20.2064ZM20.2064 46.4327V46.4735H22.2064V46.4327H20.2064ZM20.2064 46.392V46.4327H22.2064V46.392H20.2064ZM20.2064 46.3514V46.392H22.2064V46.3514H20.2064ZM20.2064 46.3109V46.3514H22.2064V46.3109H20.2064ZM20.2064 46.2706V46.3109H22.2064V46.2706H20.2064ZM20.2064 46.2303V46.2706H22.2064V46.2303H20.2064ZM20.2064 46.1902V46.2303H22.2064V46.1902H20.2064ZM20.2064 46.1501V46.1902H22.2064V46.1501H20.2064ZM20.2064 46.1102V46.1501H22.2064V46.1102H20.2064ZM20.2064 46.0704V46.1102H22.2064V46.0704H20.2064ZM20.2064 46.0307V46.0704H22.2064V46.0307H20.2064ZM20.2064 45.9912V46.0307H22.2064V45.9912H20.2064ZM20.2064 45.9517V45.9912H22.2064V45.9517H20.2064ZM20.2064 45.9124V45.9517H22.2064V45.9124H20.2064ZM20.2064 45.8732V45.9124H22.2064V45.8732H20.2064ZM20.2064 45.8341V45.8732H22.2064V45.8341H20.2064ZM20.2064 45.7952V45.8341H22.2064V45.7952H20.2064ZM20.2064 45.7563V45.7952H22.2064V45.7563H20.2064ZM20.2064 45.7176V45.7563H22.2064V45.7176H20.2064ZM20.2064 45.679V45.7176H22.2064V45.679H20.2064ZM20.2064 45.6406V45.679H22.2064V45.6406H20.2064ZM20.2064 45.6023V45.6406H22.2064V45.6023H20.2064ZM20.2064 45.5641V45.6023H22.2064V45.5641H20.2064ZM20.2064 45.526V45.5641H22.2064V45.526H20.2064ZM20.2064 45.4881V45.526H22.2064V45.4881H20.2064ZM20.2064 45.4503V45.4881H22.2064V45.4503H20.2064ZM20.2064 45.4126V45.4503H22.2064V45.4126H20.2064ZM20.2064 45.3751V45.4126H22.2064V45.3751H20.2064ZM20.2064 45.3377V45.3751H22.2064V45.3377H20.2064ZM20.2064 45.3004V45.3377H22.2064V45.3004H20.2064ZM20.2064 45.2633V45.3004H22.2064V45.2633H20.2064ZM20.2064 45.2263V45.2633H22.2064V45.2263H20.2064ZM20.2064 45.1895V45.2263H22.2064V45.1895H20.2064ZM20.2064 45.1528V45.1895H22.2064V45.1528H20.2064ZM20.2064 45.1162V45.1528H22.2064V45.1162H20.2064ZM20.2064 45.0798V45.1162H22.2064V45.0798H20.2064ZM20.2064 45.0436V45.0798H22.2064V45.0436H20.2064ZM20.2064 45.0074V45.0436H22.2064V45.0074H20.2064ZM20.2064 44.9715V45.0074H22.2064V44.9715H20.2064ZM20.2064 44.9356V44.9715H22.2064V44.9356H20.2064ZM20.2064 44.9V44.9356H22.2064V44.9H20.2064ZM20.2064 44.8644V44.9H22.2064V44.8644H20.2064ZM20.2064 44.8291V44.8644H22.2064V44.8291H20.2064ZM20.2064 44.7939V44.8291H22.2064V44.7939H20.2064ZM20.2064 44.7588V44.7939H22.2064V44.7588H20.2064ZM20.2064 44.7239V44.7588H22.2064V44.7239H20.2064ZM20.2064 44.6891V44.7239H22.2064V44.6891H20.2064ZM20.2064 44.6545V44.6891H22.2064V44.6545H20.2064ZM20.2064 44.6201V44.6545H22.2064V44.6201H20.2064ZM20.2064 44.5858V44.6201H22.2064V44.5858H20.2064ZM20.2064 44.5517V44.5858H22.2064V44.5517H20.2064ZM20.2064 44.5177V44.5517H22.2064V44.5177H20.2064ZM20.2064 44.4839V44.5177H22.2064V44.4839H20.2064ZM20.2064 44.4503V44.4839H22.2064V44.4503H20.2064ZM20.2064 44.4168V44.4503H22.2064V44.4168H20.2064ZM20.2064 44.3835V44.4168H22.2064V44.3835H20.2064ZM20.2064 44.3504V44.3835H22.2064V44.3504H20.2064ZM20.2064 44.3174V44.3504H22.2064V44.3174H20.2064ZM20.2064 44.2846V44.3174H22.2064V44.2846H20.2064ZM20.2064 44.2519V44.2846H22.2064V44.2519H20.2064ZM20.2064 44.2195V44.2519H22.2064V44.2195H20.2064ZM20.2064 44.1872V44.2195H22.2064V44.1872H20.2064ZM20.2064 44.1551V44.1872H22.2064V44.1551H20.2064ZM20.2064 44.1231V44.1551H22.2064V44.1231H20.2064ZM20.2064 44.0913V44.1231H22.2064V44.0913H20.2064ZM20.2064 44.0598V44.0913H22.2064V44.0598H20.2064ZM20.2064 44.0283V44.0598H22.2064V44.0283H20.2064ZM20.2064 43.9971V44.0283H22.2064V43.9971H20.2064ZM20.2064 43.966V43.9971H22.2064V43.966H20.2064ZM20.2064 43.9352V43.966H22.2064V43.9352H20.2064ZM20.2064 43.9045V43.9352H22.2064V43.9045H20.2064ZM20.2064 43.874V43.9045H22.2064V43.874H20.2064ZM20.2064 43.8436V43.874H22.2064V43.8436H20.2064ZM20.2064 43.8135V43.8436H22.2064V43.8135H20.2064ZM20.2064 43.7835V43.8135H22.2064V43.7835H20.2064ZM20.2064 43.7537V43.7835H22.2064V43.7537H20.2064ZM20.2064 43.7242V43.7537H22.2064V43.7242H20.2064ZM20.2064 43.6948V43.7242H22.2064V43.6948H20.2064ZM20.2064 43.6656V43.6948H22.2064V43.6656H20.2064ZM20.2064 43.6365V43.6656H22.2064V43.6365H20.2064ZM20.2064 43.6077V43.6365H22.2064V43.6077H20.2064ZM20.2064 43.5791V43.6077H22.2064V43.5791H20.2064ZM20.2064 43.5507V43.5791H22.2064V43.5507H20.2064ZM20.2064 43.5224V43.5507H22.2064V43.5224H20.2064ZM20.2064 43.4944V43.5224H22.2064V43.4944H20.2064ZM20.2064 43.4665V43.4944H22.2064V43.4665H20.2064ZM20.2064 43.4389V43.4665H22.2064V43.4389H20.2064ZM20.2064 43.4114V43.4389H22.2064V43.4114H20.2064ZM20.2064 43.3842V43.4114H22.2064V43.3842H20.2064ZM20.2064 43.3571V43.3842H22.2064V43.3571H20.2064ZM20.2064 43.3303V43.3571H22.2064V43.3303H20.2064ZM20.2064 43.3037V43.3303H22.2064V43.3037H20.2064ZM20.2064 43.2772V43.3037H22.2064V43.2772H20.2064ZM20.2064 43.251V43.2772H22.2064V43.251H20.2064ZM20.2064 43.225V43.251H22.2064V43.225H20.2064ZM20.2064 43.1992V43.225H22.2064V43.1992H20.2064ZM20.2064 43.1736V43.1992H22.2064V43.1736H20.2064ZM20.2064 43.1482V43.1736H22.2064V43.1482H20.2064ZM20.2064 43.123V43.1482H22.2064V43.123H20.2064ZM20.2064 43.0981V43.123H22.2064V43.0981H20.2064ZM20.2064 43.0733V43.0981H22.2064V43.0733H20.2064ZM20.2064 43.0488V43.0733H22.2064V43.0488H20.2064ZM20.2064 43.0244V43.0488H22.2064V43.0244H20.2064ZM20.2064 43.0003V43.0244H22.2064V43.0003H20.2064ZM20.2064 42.9765V43.0003H22.2064V42.9765H20.2064ZM20.2064 42.9528V42.9765H22.2064V42.9528H20.2064ZM20.2064 42.9294V42.9528H22.2064V42.9294H20.2064ZM20.2064 42.9061V42.9294H22.2064V42.9061H20.2064ZM20.2064 42.8831V42.9061H22.2064V42.8831H20.2064ZM20.2064 42.8603V42.8831H22.2064V42.8603H20.2064ZM20.2064 42.8378V42.8603H22.2064V42.8378H20.2064ZM20.2064 42.8155V42.8378H22.2064V42.8155H20.2064ZM20.2064 42.7934V42.8155H22.2064V42.7934H20.2064ZM20.2064 42.7715V42.7934H22.2064V42.7715H20.2064ZM20.2064 42.7499V42.7715H22.2064V42.7499H20.2064ZM20.2064 42.7284V42.7499H22.2064V42.7284H20.2064ZM20.2064 42.7073V42.7284H22.2064V42.7073H20.2064ZM20.2064 42.6863V42.7073H22.2064V42.6863H20.2064ZM20.2064 42.6656V42.6863H22.2064V42.6656H20.2064ZM20.2064 42.6451V42.6656H22.2064V42.6451H20.2064ZM20.2064 42.6249V42.6451H22.2064V42.6249H20.2064ZM20.2064 42.6048V42.6249H22.2064V42.6048H20.2064ZM20.2064 42.5851V42.6048H22.2064V42.5851H20.2064ZM20.2064 42.5655V42.5851H22.2064V42.5655H20.2064ZM20.2064 42.5462V42.5655H22.2064V42.5462H20.2064ZM20.2064 42.5272V42.5462H22.2064V42.5272H20.2064ZM20.2064 42.5084V42.5272H22.2064V42.5084H20.2064ZM20.2064 42.4898V42.5084H22.2064V42.4898H20.2064ZM20.2064 42.4715V42.4898H22.2064V42.4715H20.2064ZM20.2064 42.4534V42.4715H22.2064V42.4534H20.2064ZM20.2064 42.4356V42.4534H22.2064V42.4356H20.2064ZM20.2064 42.418V42.4356H22.2064V42.418H20.2064ZM20.2064 42.4006V42.418H22.2064V42.4006H20.2064ZM20.2064 42.3835V42.4006H22.2064V42.3835H20.2064ZM20.2064 42.3667V42.3835H22.2064V42.3667H20.2064ZM20.2064 42.3552V42.3667H22.2064V42.3552H20.2064ZM21.4248 41.3552L21.2064 41.3552L21.2064 43.3552L21.4248 43.3552L21.4248 41.3552ZM23.3571 41.3552L21.4248 41.3552L21.4248 43.3552L23.3571 43.3552L23.3571 41.3552ZM29.5264 41.3552L23.3571 41.3552L23.3571 43.3552L29.5264 43.3552L29.5264 41.3552ZM41.7242 41.3552L29.5264 41.3552L29.5264 43.3552L41.7242 43.3552L41.7242 41.3552ZM55.1335 41.3552L41.7242 41.3552L41.7242 43.3552L55.1335 43.3552L55.1335 41.3552ZM59.929 44.1814C58.8258 43.1349 57.4923 42.2782 55.5274 41.436L54.7396 43.2743C56.5427 44.0471 57.6602 44.7859 58.5525 45.6324L59.929 44.1814ZM60.2407 44.9069V43.5785H58.2407V44.9069H60.2407Z" fill="#222222"/>
<path d="M62 39L62 58" stroke="#222222" stroke-width="3" stroke-linecap="round"/>
<path d="M73 48L51 48" stroke="#222222" stroke-width="3" stroke-linecap="round"/>
<rect x="27.5" y="19.5" width="26" height="17" stroke="#222222" stroke-width="3"/>
<path d="M30 28L33.5 25L37 28" stroke="#222222" stroke-width="2"/>
<path d="M44 28L47.5 25L51 28" stroke="#222222" stroke-width="2"/>
<line x1="40.5" y1="11" x2="40.5" y2="18" stroke="#222222"/>
<line x1="41.5" y1="12" x2="41.5" y2="19" stroke="#222222"/>
</svg>
